<svg xmlns="http://www.w3.org/2000/svg" viewBox="30 23 615 194" width="615" height="194">
  <defs><linearGradient id="arcM" x1="96" y1="0" x2="416" y2="0" gradientUnits="userSpaceOnUse"><stop offset="0" stop-color="#C1503F"></stop><stop offset="0.5" stop-color="#D99A3D"></stop><stop offset="1" stop-color="#7FB238"></stop></linearGradient></defs>
  
  <rect x="40" y="33" width="174" height="174" rx="40" fill="#6815E5"></rect>
  <g transform="translate(40,33) scale(0.34)"><path d="M 124 344 A 140 140 0 0 1 388 344" fill="none" stroke="url(#arcM)" stroke-width="34" stroke-linecap="round"></path><g transform="translate(-75.80000000000003,8.794999999999959) scale(1.35)"><path d="M125.23 260L111.22 260L111.22 236.64L125.23 236.64L125.23 240.13L115.15 240.13L115.15 246.21L124.11 246.21L124.11 249.66L115.15 249.66L115.15 256.51L125.23 256.51" fill="#C1503F"></path></g><g transform="translate(-103.40000000000009,8.794999999999959) scale(1.35)"><path d="M390.96 260L386.96 260L386.96 236.64L401.49 236.64L401.49 240.35L390.90 240.35L390.90 246.59L400.66 246.59L400.66 250.30L390.96 250.30" fill="#7FB238"></path></g><g transform="rotate(46 256 300)"><line x1="256" y1="300" x2="256" y2="164" stroke="#F4F1E8" stroke-width="30" stroke-linecap="round"></line></g><circle cx="256" cy="300" r="40" fill="#F4F1E8"></circle><circle cx="256" cy="300" r="15" fill="#6815E5"></circle></g>
  <path d="M273.76 150L258.16 150Q255.04 150 253.36 148.32Q251.68 146.64 251.68 143.52L251.68 100.08Q251.68 96.96 253.36 95.28Q255.04 93.60 258.16 93.60L273.76 93.60Q288.24 93.60 296.12 100.92Q304 108.24 304 121.76Q304 128.56 301.96 133.80Q299.92 139.04 296.08 142.64Q292.24 146.24 286.64 148.12Q281.04 150 273.76 150M264.08 103.76L264.08 139.84L273.04 139.84Q277.60 139.84 280.96 138.72Q284.32 137.60 286.56 135.36Q288.80 133.12 289.92 129.72Q291.04 126.32 291.04 121.76Q291.04 112.64 286.52 108.20Q282 103.76 273.04 103.76L264.08 103.76M318.80 150.72Q315.76 150.72 314.16 149.12Q312.56 147.52 312.56 144.56L312.56 116.16Q312.56 113.20 314.12 111.64Q315.68 110.08 318.48 110.08Q321.36 110.08 322.88 111.64Q324.40 113.20 324.40 116.16L324.40 120.32L323.60 120.32Q324.56 115.52 327.84 112.88Q331.12 110.24 336.32 109.92Q338.32 109.76 339.40 110.92Q340.48 112.08 340.56 114.72Q340.72 117.20 339.56 118.64Q338.40 120.08 335.68 120.40L333.84 120.56Q329.28 120.96 327.08 123.20Q324.88 125.44 324.88 129.68L324.88 144.56Q324.88 147.52 323.32 149.12Q321.76 150.72 318.80 150.72M351.60 150.64Q348.64 150.64 347.08 148.92Q345.52 147.20 345.52 144.08L345.52 116.72Q345.52 113.52 347.08 111.80Q348.64 110.08 351.60 110.08Q354.48 110.08 356.04 111.80Q357.60 113.52 357.60 116.72L357.60 144.08Q357.60 147.20 356.08 148.92Q354.56 150.64 351.60 150.64M351.60 103.52Q348.24 103.52 346.44 101.96Q344.64 100.40 344.64 97.52Q344.64 94.56 346.44 93Q348.24 91.44 351.60 91.44Q354.96 91.44 356.72 93Q358.48 94.56 358.48 97.52Q358.48 100.40 356.72 101.96Q354.96 103.52 351.60 103.52M383.60 150.72Q381.28 150.72 379.52 149.48Q377.76 148.24 376.72 145.76L364.64 117.92Q363.76 115.84 364 114.04Q364.24 112.24 365.72 111.16Q367.20 110.08 369.84 110.08Q372 110.08 373.36 111.08Q374.72 112.08 375.76 114.88L385.20 138.88L382.64 138.88L392.48 114.80Q393.60 112.08 394.96 111.08Q396.32 110.08 398.72 110.08Q400.80 110.08 402.04 111.16Q403.28 112.24 403.56 114Q403.84 115.76 402.88 117.84L390.56 145.76Q389.52 148.32 387.80 149.52Q386.08 150.72 383.60 150.72M430.08 150.88Q423.12 150.88 418.12 148.36Q413.12 145.84 410.44 141.24Q407.76 136.64 407.76 130.40Q407.76 124.32 410.32 119.72Q412.88 115.12 417.48 112.52Q422.08 109.92 427.92 109.92Q432.16 109.92 435.60 111.32Q439.04 112.72 441.52 115.32Q444 117.92 445.28 121.64Q446.56 125.36 446.56 129.92Q446.56 131.44 445.60 132.20Q444.64 132.96 442.80 132.96L417.68 132.96L417.68 126.72L437.84 126.72L436.56 127.84Q436.56 124.56 435.60 122.36Q434.64 120.16 432.84 119.04Q431.04 117.92 428.40 117.92Q425.44 117.92 423.36 119.28Q421.28 120.64 420.16 123.20Q419.04 125.76 419.04 129.36L419.04 130Q419.04 136.08 421.88 138.96Q424.72 141.84 430.32 141.84Q432.24 141.84 434.72 141.36Q437.20 140.88 439.36 139.84Q441.20 138.96 442.64 139.24Q444.08 139.52 444.88 140.56Q445.68 141.60 445.80 142.96Q445.92 144.32 445.20 145.64Q444.48 146.96 442.80 147.84Q440.08 149.36 436.68 150.12Q433.28 150.88 430.08 150.88" fill="#6815E5"></path><path d="M468.32 150.72Q464.80 150.72 461.08 149.92Q457.36 149.12 454.24 147.20Q453.20 146.48 452.80 145.60Q452.40 144.72 452.52 143.80Q452.64 142.88 453.24 142.20Q453.84 141.52 454.76 141.36Q455.68 141.20 456.72 141.76Q459.84 143.52 462.72 144.20Q465.60 144.88 468.40 144.88Q472.64 144.88 474.80 143.36Q476.96 141.84 476.96 139.28Q476.96 137.20 475.52 136.04Q474.08 134.88 471.20 134.24L463.60 132.72Q458.64 131.68 456.08 129.04Q453.52 126.40 453.52 122.32Q453.52 118.64 455.52 115.92Q457.52 113.20 461.12 111.72Q464.72 110.24 469.44 110.24Q472.96 110.24 476.08 111.12Q479.20 112 481.84 113.76Q482.88 114.32 483.20 115.24Q483.52 116.16 483.32 117.04Q483.12 117.92 482.48 118.60Q481.84 119.28 480.92 119.40Q480 119.52 478.88 118.96Q476.48 117.44 474.12 116.80Q471.76 116.16 469.44 116.16Q465.20 116.16 463.08 117.72Q460.96 119.28 460.96 121.92Q460.96 123.92 462.24 125.20Q463.52 126.48 466.24 127.04L473.84 128.56Q479.04 129.60 481.72 132.08Q484.40 134.56 484.40 138.80Q484.40 144.32 480 147.52Q475.60 150.72 468.32 150.72M510.56 150.72Q504.56 150.72 500.20 148.20Q495.84 145.68 493.44 141.08Q491.04 136.48 491.04 130.24Q491.04 125.60 492.40 121.88Q493.76 118.16 496.28 115.60Q498.80 113.04 502.44 111.64Q506.08 110.24 510.56 110.24Q513.36 110.24 516.44 111.08Q519.52 111.92 522.16 113.84Q523.20 114.48 523.48 115.40Q523.76 116.32 523.56 117.28Q523.36 118.24 522.68 118.92Q522 119.60 521.04 119.72Q520.08 119.84 518.96 119.20Q517.04 117.84 515.04 117.24Q513.04 116.64 511.20 116.64Q508.32 116.64 506.12 117.56Q503.92 118.48 502.40 120.20Q500.88 121.92 500.12 124.48Q499.36 127.04 499.36 130.32Q499.36 136.88 502.44 140.60Q505.52 144.32 511.20 144.32Q513.04 144.32 515.04 143.76Q517.04 143.20 518.96 141.84Q520.08 141.20 521.04 141.36Q522 141.52 522.60 142.20Q523.20 142.88 523.40 143.80Q523.60 144.72 523.28 145.68Q522.96 146.64 521.92 147.28Q519.36 149.12 516.36 149.92Q513.36 150.72 510.56 150.72M547.68 150.72Q541.76 150.72 537.48 148.24Q533.20 145.76 530.80 141.20Q528.40 136.64 528.40 130.48Q528.40 125.76 529.76 122.08Q531.12 118.40 533.64 115.72Q536.16 113.04 539.72 111.64Q543.28 110.24 547.68 110.24Q553.52 110.24 557.80 112.72Q562.08 115.20 564.48 119.72Q566.88 124.24 566.88 130.48Q566.88 135.12 565.52 138.88Q564.16 142.64 561.64 145.28Q559.12 147.92 555.56 149.32Q552 150.72 547.68 150.72M547.68 144.48Q550.96 144.48 553.44 142.88Q555.92 141.28 557.32 138.16Q558.72 135.04 558.72 130.48Q558.72 123.60 555.68 120.08Q552.64 116.56 547.68 116.56Q544.32 116.56 541.84 118.12Q539.36 119.68 537.96 122.80Q536.56 125.92 536.56 130.48Q536.56 137.28 539.60 140.88Q542.64 144.48 547.68 144.48M580 150.56Q578 150.56 576.96 149.48Q575.92 148.40 575.92 146.48L575.92 114.48Q575.92 112.48 576.96 111.44Q578 110.40 579.84 110.40Q581.76 110.40 582.76 111.44Q583.76 112.48 583.76 114.48L583.76 120.32L582.96 120.32Q584.24 115.52 587.68 113.04Q591.12 110.56 596.48 110.16Q597.92 110.08 598.76 110.88Q599.60 111.68 599.68 113.36Q599.84 115.04 598.96 116.04Q598.08 117.04 596.24 117.20L594.72 117.36Q589.52 117.84 586.80 120.64Q584.08 123.44 584.08 128.32L584.08 146.48Q584.08 148.40 583.08 149.48Q582.08 150.56 580 150.56M624.08 150.72Q617.68 150.72 613.08 148.28Q608.48 145.84 605.96 141.32Q603.44 136.80 603.44 130.56Q603.44 124.48 605.92 119.92Q608.40 115.36 612.72 112.80Q617.04 110.24 622.56 110.24Q626.64 110.24 629.84 111.56Q633.04 112.88 635.32 115.40Q637.60 117.92 638.76 121.52Q639.92 125.12 639.92 129.60Q639.92 130.96 639.12 131.64Q638.32 132.32 636.72 132.32L609.84 132.32L609.84 127.36L634.48 127.36L633.12 128.48Q633.12 124.48 631.96 121.68Q630.80 118.88 628.52 117.40Q626.24 115.92 622.88 115.92Q619.12 115.92 616.52 117.68Q613.92 119.44 612.56 122.56Q611.20 125.68 611.20 129.84L611.20 130.32Q611.20 137.36 614.52 140.92Q617.84 144.48 624.16 144.48Q626.56 144.48 629.24 143.84Q631.92 143.20 634.32 141.68Q635.68 140.88 636.76 140.96Q637.84 141.04 638.52 141.68Q639.20 142.32 639.36 143.28Q639.52 144.24 639.04 145.24Q638.56 146.24 637.36 147.04Q634.64 148.88 631.04 149.80Q627.44 150.72 624.08 150.72" fill="#6815E5"></path>
</svg>