<svg xmlns="http://www.w3.org/2000/svg" viewBox="0 0 512 512" width="512" height="512">
  <defs><radialGradient id="bg" cx="0.5" cy="0" r="1.15"><stop offset="0" stop-color="#7F36EC"></stop><stop offset="0.46" stop-color="#6815E5"></stop><stop offset="1" stop-color="#550FBD"></stop></radialGradient><linearGradient id="arc" x1="96" y1="0" x2="416" y2="0" gradientUnits="userSpaceOnUse"><stop offset="0" stop-color="#C1503F"></stop><stop offset="0.5" stop-color="#D99A3D"></stop><stop offset="1" stop-color="#7FB238"></stop></linearGradient></defs>
  <rect width="512" height="512" rx="112" fill="url(#bg)"></rect>
  <path d="M 148 248 A 115 115 0 0 1 364 248" fill="none" stroke="url(#arc)" stroke-width="24" stroke-linecap="round"></path>
  <path d="M125.23 260L111.22 260L111.22 236.64L125.23 236.64L125.23 240.13L115.15 240.13L115.15 246.21L124.11 246.21L124.11 249.66L115.15 249.66L115.15 256.51L125.23 256.51" fill="#C1503F"></path>
  <path d="M390.96 260L386.96 260L386.96 236.64L401.49 236.64L401.49 240.35L390.90 240.35L390.90 246.59L400.66 246.59L400.66 250.30L390.96 250.30" fill="#7FB238"></path>
  <g transform="rotate(46 256 209)"><line x1="256" y1="209" x2="256" y2="112" stroke="#F4F1E8" stroke-width="13" stroke-linecap="round"></line></g>
  <circle cx="256" cy="209" r="16" fill="#F4F1E8"></circle><circle cx="256" cy="209" r="6" fill="#6815E5"></circle>
  <path d="M195.71 326L183.23 326Q180.74 326 179.39 324.66Q178.05 323.31 178.05 320.82L178.05 286.06Q178.05 283.57 179.39 282.22Q180.74 280.88 183.23 280.88L195.71 280.88Q207.30 280.88 213.60 286.74Q219.90 292.59 219.90 303.41Q219.90 308.85 218.27 313.04Q216.64 317.23 213.57 320.11Q210.50 322.99 206.02 324.50Q201.54 326 195.71 326M187.97 289.01L187.97 317.87L195.14 317.87Q198.78 317.87 201.47 316.98Q204.16 316.08 205.95 314.29Q207.74 312.50 208.64 309.78Q209.54 307.06 209.54 303.41Q209.54 296.11 205.92 292.56Q202.30 289.01 195.14 289.01L187.97 289.01M231.74 326.58Q229.31 326.58 228.03 325.30Q226.75 324.02 226.75 321.65L226.75 298.93Q226.75 296.56 228 295.31Q229.25 294.06 231.49 294.06Q233.79 294.06 235.01 295.31Q236.22 296.56 236.22 298.93L236.22 302.26L235.58 302.26Q236.35 298.42 238.98 296.30Q241.60 294.19 245.76 293.94Q247.36 293.81 248.22 294.74Q249.09 295.66 249.15 297.78Q249.28 299.76 248.35 300.91Q247.42 302.06 245.25 302.32L243.78 302.45Q240.13 302.77 238.37 304.56Q236.61 306.35 236.61 309.74L236.61 321.65Q236.61 324.02 235.36 325.30Q234.11 326.58 231.74 326.58M257.98 326.51Q255.62 326.51 254.37 325.14Q253.12 323.76 253.12 321.26L253.12 299.38Q253.12 296.82 254.37 295.44Q255.62 294.06 257.98 294.06Q260.29 294.06 261.54 295.44Q262.78 296.82 262.78 299.38L262.78 321.26Q262.78 323.76 261.57 325.14Q260.35 326.51 257.98 326.51M257.98 288.82Q255.30 288.82 253.86 287.57Q252.42 286.32 252.42 284.02Q252.42 281.65 253.86 280.40Q255.30 279.15 257.98 279.15Q260.67 279.15 262.08 280.40Q263.49 281.65 263.49 284.02Q263.49 286.32 262.08 287.57Q260.67 288.82 257.98 288.82M283.58 326.58Q281.73 326.58 280.32 325.58Q278.91 324.59 278.08 322.61L268.42 300.34Q267.71 298.67 267.90 297.23Q268.10 295.79 269.28 294.93Q270.46 294.06 272.58 294.06Q274.30 294.06 275.39 294.86Q276.48 295.66 277.31 297.90L284.86 317.10L282.82 317.10L290.69 297.84Q291.58 295.66 292.67 294.86Q293.76 294.06 295.68 294.06Q297.34 294.06 298.34 294.93Q299.33 295.79 299.55 297.20Q299.78 298.61 299.01 300.27L289.15 322.61Q288.32 324.66 286.94 325.62Q285.57 326.58 283.58 326.58M320.77 326.70Q315.20 326.70 311.20 324.69Q307.20 322.67 305.06 318.99Q302.91 315.31 302.91 310.32Q302.91 305.46 304.96 301.78Q307.01 298.10 310.69 296.02Q314.37 293.94 319.04 293.94Q322.43 293.94 325.18 295.06Q327.94 296.18 329.92 298.26Q331.90 300.34 332.93 303.31Q333.95 306.29 333.95 309.94Q333.95 311.15 333.18 311.76Q332.42 312.37 330.94 312.37L310.85 312.37L310.85 307.38L326.98 307.38L325.95 308.27Q325.95 305.65 325.18 303.89Q324.42 302.13 322.98 301.23Q321.54 300.34 319.42 300.34Q317.06 300.34 315.39 301.42Q313.73 302.51 312.83 304.56Q311.94 306.61 311.94 309.49L311.94 310Q311.94 314.86 314.21 317.17Q316.48 319.47 320.96 319.47Q322.50 319.47 324.48 319.09Q326.46 318.70 328.19 317.87Q329.66 317.17 330.82 317.39Q331.97 317.62 332.61 318.45Q333.25 319.28 333.34 320.37Q333.44 321.46 332.86 322.51Q332.29 323.57 330.94 324.27Q328.77 325.49 326.05 326.10Q323.33 326.70 320.77 326.70" fill="#F4F1E8"></path><path d="M157.11 417.97Q152.64 417.97 147.92 416.96Q143.20 415.94 139.24 413.51Q137.92 412.59 137.41 411.47Q136.90 410.36 137.05 409.19Q137.21 408.02 137.97 407.16Q138.73 406.29 139.90 406.09Q141.07 405.89 142.39 406.60Q146.35 408.83 150 409.70Q153.66 410.56 157.22 410.56Q162.60 410.56 165.34 408.63Q168.08 406.70 168.08 403.45Q168.08 400.81 166.25 399.34Q164.43 397.86 160.77 397.05L151.12 395.12Q144.82 393.80 141.57 390.45Q138.32 387.10 138.32 381.92Q138.32 377.24 140.86 373.79Q143.40 370.34 147.97 368.46Q152.54 366.58 158.54 366.58Q163 366.58 166.97 367.70Q170.93 368.81 174.28 371.05Q175.60 371.76 176.01 372.93Q176.41 374.10 176.16 375.21Q175.90 376.33 175.09 377.19Q174.28 378.06 173.11 378.21Q171.94 378.36 170.52 377.65Q167.47 375.72 164.48 374.91Q161.48 374.10 158.54 374.10Q153.15 374.10 150.46 376.08Q147.77 378.06 147.77 381.41Q147.77 383.95 149.39 385.57Q151.02 387.20 154.47 387.91L164.12 389.84Q170.72 391.16 174.13 394.31Q177.53 397.46 177.53 402.84Q177.53 409.85 171.94 413.91Q166.36 417.97 157.11 417.97M210.74 417.97Q203.12 417.97 197.59 414.77Q192.05 411.58 189.01 405.73Q185.96 399.89 185.96 391.97Q185.96 386.08 187.69 381.36Q189.41 376.64 192.61 373.38Q195.81 370.13 200.43 368.36Q205.05 366.58 210.74 366.58Q214.30 366.58 218.21 367.65Q222.12 368.71 225.47 371.15Q226.79 371.96 227.15 373.13Q227.50 374.30 227.25 375.52Q226.99 376.74 226.13 377.60Q225.27 378.46 224.05 378.62Q222.83 378.77 221.41 377.96Q218.97 376.23 216.43 375.47Q213.89 374.71 211.56 374.71Q207.90 374.71 205.11 375.87Q202.31 377.04 200.38 379.23Q198.45 381.41 197.49 384.66Q196.52 387.91 196.52 392.07Q196.52 400.40 200.43 405.13Q204.34 409.85 211.56 409.85Q213.89 409.85 216.43 409.14Q218.97 408.43 221.41 406.70Q222.83 405.89 224.05 406.09Q225.27 406.29 226.03 407.16Q226.79 408.02 227.04 409.19Q227.30 410.36 226.89 411.58Q226.49 412.79 225.17 413.61Q221.92 415.94 218.11 416.96Q214.30 417.97 210.74 417.97M257.87 417.97Q250.36 417.97 244.92 414.83Q239.49 411.68 236.44 405.89Q233.39 400.10 233.39 392.28Q233.39 386.28 235.12 381.61Q236.85 376.94 240.05 373.54Q243.25 370.13 247.76 368.36Q252.28 366.58 257.87 366.58Q265.29 366.58 270.72 369.73Q276.15 372.88 279.20 378.62Q282.25 384.35 282.25 392.28Q282.25 398.17 280.52 402.94Q278.79 407.72 275.60 411.07Q272.40 414.42 267.88 416.20Q263.36 417.97 257.87 417.97M257.87 410.05Q262.04 410.05 265.18 408.02Q268.33 405.99 270.11 402.03Q271.89 398.07 271.89 392.28Q271.89 383.54 268.03 379.07Q264.17 374.60 257.87 374.60Q253.61 374.60 250.46 376.58Q247.31 378.56 245.53 382.53Q243.75 386.49 243.75 392.28Q243.75 400.91 247.61 405.48Q251.47 410.05 257.87 410.05M298.91 417.77Q296.37 417.77 295.05 416.40Q293.73 415.03 293.73 412.59L293.73 371.96Q293.73 369.42 295.05 368.10Q296.37 366.78 298.70 366.78Q301.14 366.78 302.41 368.10Q303.68 369.42 303.68 371.96L303.68 379.38L302.66 379.38Q304.29 373.28 308.66 370.13Q313.02 366.99 319.83 366.48Q321.66 366.38 322.72 367.39Q323.79 368.41 323.89 370.54Q324.10 372.67 322.98 373.94Q321.86 375.21 319.52 375.42L317.59 375.62Q310.99 376.23 307.54 379.78Q304.09 383.34 304.09 389.53L304.09 412.59Q304.09 415.03 302.82 416.40Q301.55 417.77 298.91 417.77M354.87 417.97Q346.75 417.97 340.90 414.88Q335.06 411.78 331.87 406.04Q328.67 400.30 328.67 392.38Q328.67 384.66 331.81 378.87Q334.96 373.08 340.45 369.83Q345.93 366.58 352.94 366.58Q358.12 366.58 362.18 368.26Q366.25 369.93 369.14 373.13Q372.04 376.33 373.51 380.90Q374.98 385.47 374.98 391.16Q374.98 392.89 373.97 393.75Q372.95 394.61 370.92 394.61L336.79 394.61L336.79 388.32L368.07 388.32L366.35 389.74Q366.35 384.66 364.88 381.10Q363.40 377.55 360.51 375.67Q357.61 373.79 353.35 373.79Q348.57 373.79 345.27 376.03Q341.97 378.26 340.24 382.22Q338.52 386.18 338.52 391.46L338.52 392.07Q338.52 401.01 342.73 405.53Q346.95 410.05 354.97 410.05Q358.02 410.05 361.42 409.24Q364.82 408.43 367.87 406.50Q369.60 405.48 370.97 405.58Q372.34 405.68 373.20 406.50Q374.07 407.31 374.27 408.53Q374.47 409.75 373.86 411.02Q373.26 412.29 371.73 413.30Q368.28 415.64 363.71 416.81Q359.14 417.97 354.87 417.97" fill="#F4F1E8"></path>
</svg>